<svg width="48" height="48" viewBox="0 0 48 48" fill="none" xmlns="http://www.w3.org/2000/svg">
<path d="M48 24C48 37.2548 37.2548 48 24 48C10.7452 48 0 37.2548 0 24C0 10.7452 10.7452 0 24 0C37.2548 0 48 10.7452 48 24Z" fill="white"/>
<path d="M33.1636 16.1455C33.1636 21.2064 29.0609 25.3091 24 25.3091C18.9391 25.3091 14.8364 21.2064 14.8364 16.1455C14.8364 11.0845 18.9391 6.98182 24 6.98182C29.0609 6.98182 33.1636 11.0845 33.1636 16.1455Z" fill="#BBBBBB"/>
<path d="M24 27.9273C32.1494 27.9273 38.9591 33.6558 40.6261 41.3054C36.3128 45.4505 30.4546 48 24 48C17.5451 48 11.6864 45.4508 7.37301 41.3054C9.03999 33.6557 15.8506 27.9273 24 27.9273Z" fill="#BBBBBB"/>
</svg>
