<svg width="18" height="18" viewBox="0 0 18 18" fill="none" xmlns="http://www.w3.org/2000/svg">
<path d="M11.6907 8.76792C11.6907 7.99278 11.3828 7.24938 10.8347 6.70127C10.2866 6.15317 9.54318 5.84524 8.76804 5.84524C7.9929 5.84524 7.2495 6.15317 6.7014 6.70127C6.15329 7.24938 5.84536 7.99278 5.84536 8.76792C5.84536 9.54306 6.15329 10.2865 6.7014 10.8346C7.2495 11.3827 7.9929 11.6906 8.76804 11.6906C9.54318 11.6906 10.2866 11.3827 10.8347 10.8346C11.3828 10.2865 11.6907 9.54306 11.6907 8.76792ZM11.6907 8.76792V9.86392C11.6907 10.3484 11.8832 10.813 12.2257 11.1556C12.5683 11.4981 13.0329 11.6906 13.5174 11.6906C14.0019 11.6906 14.4665 11.4981 14.809 11.1556C15.1516 10.813 15.3441 10.3484 15.3441 9.86392V8.76792C15.3441 7.4673 14.9584 6.1959 14.2358 5.11448C13.5132 4.03306 12.4862 3.19019 11.2846 2.69247C10.083 2.19474 8.76075 2.06452 7.48512 2.31825C6.2095 2.57199 5.03776 3.1983 4.11809 4.11797C3.19842 5.03764 2.57211 6.20938 2.31838 7.485C2.06464 8.76062 2.19487 10.0828 2.69259 11.2845C3.19031 12.4861 4.03318 13.5131 5.1146 14.2357C6.19602 14.9583 7.46743 15.3439 8.76804 15.3439C9.92264 15.3451 11.057 15.0416 12.0561 14.4628" stroke="black" stroke-width="1.46134" stroke-linecap="round" stroke-linejoin="round"/>
</svg>
