<svg width="18" height="18" viewBox="0 0 18 18" fill="none" xmlns="http://www.w3.org/2000/svg">
<path d="M10.9602 8.76818C10.9602 9.34954 10.7292 9.90708 10.3182 10.3182C9.90708 10.7292 9.34954 10.9602 8.76818 10.9602C8.18682 10.9602 7.62928 10.7292 7.2182 10.3182C6.80711 9.90708 6.57617 9.34954 6.57617 8.76818C6.57617 8.18682 6.80711 7.62928 7.2182 7.2182C7.62928 6.80711 8.18682 6.57617 8.76818 6.57617C9.34954 6.57617 9.90708 6.80711 10.3182 7.2182C10.7292 7.62928 10.9602 8.18682 10.9602 8.76818Z" stroke="black" stroke-width="1.46134" stroke-linecap="round" stroke-linejoin="round"/>
<path d="M1.79602 8.768C2.72689 5.80368 5.49686 3.65332 8.76806 3.65332C12.04 3.65332 14.8092 5.80368 15.7401 8.768C14.8092 11.7323 12.04 13.8827 8.76806 13.8827C5.49686 13.8827 2.72689 11.7323 1.79602 8.768Z" stroke="black" stroke-width="1.46134" stroke-linecap="round" stroke-linejoin="round"/>
</svg>
