<svg width="82" height="77" viewBox="0 0 82 77" fill="none" xmlns="http://www.w3.org/2000/svg">
<g opacity="0.980392">
<path d="M12.3212 51.6598C12.2202 51.4296 12.0875 51.2276 11.9067 51.094C11.7137 50.9515 11.4884 50.904 11.2554 50.9514L11.1993 50.9625L10.388 51.4606L10.3612 51.4868L9.45336 52.3795L9.44412 52.3889L9.43521 52.3989L7.99361 54.0666L7.96516 54.0999L7.94637 54.1393L7.5266 55.0117L7.46289 55.145L7.5191 55.2814C7.6934 55.7049 7.98559 56.0673 8.45163 56.0535L8.51671 56.0512L8.57606 56.0246L9.27465 55.7072L9.34447 55.6756L9.39278 55.6158L10.6557 54.0691L11.7892 53.0417L11.826 53.0086L11.8516 52.9657L12.32 52.175L12.3738 52.0847L12.3653 51.9792L12.348 51.7661L12.3437 51.7107L12.3212 51.6598Z" fill="#155724"/>
<path d="M26.9632 67.2617C26.7978 66.8771 26.5145 66.5447 26.068 66.5775L26.0387 66.5796L26.0095 66.587L22.8569 67.4115L21.2325 67.6351L21.1652 67.6448L20.6933 67.9345L20.6523 68.0313L20.4909 68.4098L20.4361 68.5392L20.4906 68.6692L20.754 69.2901L20.8186 69.4418L20.9778 69.4804L21.4341 69.5919L21.4925 69.6058L21.5514 69.5982L23.6183 69.3356L23.6395 69.3324L23.6603 69.3272L25.5792 68.8195L25.612 68.8107L25.6425 68.7957L26.6659 68.2789L26.7731 68.2251L26.8197 68.1143L26.9811 67.7358L27.0127 67.6607L27.0063 67.5795L26.989 67.3664L26.9845 67.3119L26.9632 67.2617Z" fill="#155724"/>
<path d="M21.4933 46.7547C21.2519 46.3684 20.915 46.1178 20.4866 46.1283L20.3998 46.1342L20.3566 46.1381L20.3161 46.1539L17.3417 47.3097L17.3145 47.3203L16.574 47.7749L16.5333 47.8399C16.3076 48.2015 16.3304 48.6058 16.5203 48.9966L16.5573 49.0741L16.6278 49.1227L17.0117 49.3902L17.115 49.4624L17.2392 49.4456L17.7034 49.3844L17.7407 49.3795L19.2235 48.8134L19.2379 48.8076L19.2527 48.8L21.218 47.8171L21.2876 47.7827L21.3343 47.7201L21.5561 47.422L21.5411 46.8315L21.4933 46.7547Z" fill="#155724"/>
<path d="M37.187 62.4476C37.0896 62.2038 36.9581 61.9862 36.7705 61.8476C36.5773 61.705 36.3537 61.6687 36.1296 61.7259L35.9423 61.7422L35.8661 61.7483L33.8047 63.0139L33.5775 62.9591L33.4642 63.1401L33.4309 63.1319L32.4958 63.706L32.4549 63.8027L32.238 64.311L32.5565 65.0616L32.6084 65.1834L32.7291 65.235L33.1039 65.3959L33.2146 65.4432L33.3296 65.4072L34.0773 65.1712L34.1158 65.1595L35.3342 64.4115L35.4639 64.4434L35.8018 64.2359L35.841 64.1772C36.0053 63.9345 36.3283 63.6895 36.8647 63.4666L36.9879 63.4158L37.2334 62.8388L37.2266 62.757L37.2096 62.5445L37.2055 62.4943L37.187 62.4476Z" fill="#155724"/>
<path d="M31.9714 40.7073C31.884 40.5159 31.7897 40.3492 31.6858 40.2153C31.5959 40.0995 31.4886 39.9949 31.3605 39.9261L31.3044 39.8988L31.1964 39.8521L31.0829 39.8856L30.2996 40.1195L30.2426 40.1748L29.6286 40.7687L27.1499 42.512L27.0671 42.5704L26.7959 43.2868L26.8348 43.4007C26.9171 43.6392 27.0289 43.8534 27.1904 44.0012C27.3585 44.1551 27.5674 44.2227 27.7921 44.1892L28.0036 44.1708L28.0804 44.1644L30.2098 42.857L30.2421 42.7249L30.2445 42.7152L31.6291 41.7551L31.6671 41.6708L31.973 40.9798L32.0339 40.843L31.9714 40.7073Z" fill="#155724"/>
<path d="M46.3373 55.489C46.1634 55.0539 45.8859 54.6765 45.4493 54.6361L45.3603 54.632L45.2922 54.6331L45.2301 54.6614L44.5315 54.9788L44.4639 55.0091L44.4162 55.0662L44.0466 55.5056L42.2836 56.9315L42.2519 57.015L42.0154 57.6392L42.0573 57.7544L42.2222 58.2121L42.2732 58.3548L42.4135 58.408L42.9195 58.6005L43.0457 58.6488L43.8674 58.2754L44.0122 58.2098L44.0503 58.0539L44.0556 58.0318L45.7691 56.6612L45.794 56.6406L45.8149 56.6157L46.2539 56.0946L46.2717 56.0189L46.3519 55.6902L46.3766 55.5876L46.3373 55.489Z" fill="#155724"/>
<path d="M40.6487 33.1442C40.5526 32.9349 40.424 32.748 40.2457 32.6285C40.0785 32.5166 39.8904 32.4795 39.7003 32.5092L39.6187 32.5261L39.5974 32.5317L39.5769 32.5398L39.0412 32.7572L38.9697 32.786L38.9187 32.8437L38.0786 33.7979L36.9189 34.7411L36.8866 34.8137L36.5803 35.5041L36.5278 35.6238L36.57 35.747C36.6523 35.9855 36.7644 36.2002 36.9259 36.348C37.091 36.499 37.295 36.5663 37.5149 36.5371C37.9364 36.5507 38.3521 36.3022 38.7457 35.9321L40.1712 34.6102L40.2063 34.5781L40.2301 34.5371L40.699 33.7461L40.7658 33.6328L40.7374 33.5041L40.671 33.2096L40.663 33.1753L40.6487 33.1442Z" fill="#155724"/>
<path d="M55.5286 46.3817C55.4312 46.1379 55.2995 45.9203 55.1121 45.7817C54.9321 45.6488 54.7256 45.6073 54.5171 45.6483L54.4271 45.6712L54.4187 45.6733L54.4109 45.6766L53.9556 45.8439L53.8745 45.8741L53.819 45.9406L52.6624 47.3158L50.9376 49.0414C50.5688 49.3521 50.3478 49.7364 50.3398 50.1918L50.339 50.2548L50.3614 50.3142C50.4614 50.5816 50.5965 50.8165 50.7882 50.9696C50.9971 51.1363 51.2463 51.1845 51.5014 51.117L51.5476 51.1045L52.2734 50.6589L52.3024 50.629L54.1494 48.7124L54.1594 48.7017L55.0179 47.7272L55.0383 47.7041L55.0545 47.6776L55.5768 46.7958L55.5681 46.6911L55.5508 46.478L55.5467 46.4278L55.5286 46.3817Z" fill="#155724"/>
<path d="M53.9717 36.6042C53.8083 36.2071 53.5413 35.8639 53.1246 35.8339L53.0391 35.8321L52.9689 35.8345L52.9062 35.8655C52.351 36.1366 51.8919 36.1693 51.501 36.0217L51.4237 35.99L51.4082 35.983L51.3923 35.9777C51.0632 35.8689 50.7422 35.6117 50.4374 35.1598C50.1925 34.5233 50.2046 33.9828 50.432 33.5097L50.4378 33.4971L50.443 33.4834L50.6365 32.9736L50.6827 32.8511L50.6326 32.7296C50.4584 32.3063 50.1663 31.9444 49.7004 31.9581L49.6776 31.9586L49.6553 31.9625L49.1508 32.0485L49.0453 32.0666L48.9707 32.1448C48.4548 32.683 48.1671 33.2997 48.1376 33.988L48.1366 34.0037L48.1379 34.0195L48.2093 35.4287L48.2127 35.4975L48.7524 36.5875L48.7712 36.6249L48.7984 36.6564C49.497 37.4653 50.2952 37.9712 51.1936 38.1373C51.9751 38.3766 52.8215 38.1628 53.7009 37.5997L53.7512 37.5681L53.787 37.5197L54.0092 37.2221L53.9966 36.7222L53.9947 36.6608L53.9717 36.6042Z" fill="#155724"/>
<path d="M50.7766 27.2478C50.3466 26.3888 49.7682 25.8393 49.0188 25.7749L48.8666 25.7689L48.8648 25.7685L48.3113 25.7731L48.2546 25.7733L48.2016 25.7931L47.2912 26.1283L47.2193 26.1551L47.1663 26.2109L46.4208 27.0039L46.3688 27.0599L46.3462 27.1326L46.0191 28.1883L46.0151 28.2089C45.9217 28.7446 46.1515 29.2977 46.5742 29.8422L46.5905 29.8631L46.6097 29.8814C47.0061 30.2512 47.4563 30.4735 47.9553 30.5287C48.5733 30.6281 49.2242 30.4234 49.8904 29.9907L49.9108 29.9774L49.9295 29.9614C50.4688 29.4835 50.7987 28.9258 50.8778 28.2892L50.8818 28.2551L50.8793 28.2213L50.8104 27.3694L50.8051 27.3049L50.7766 27.2478Z" fill="#155724"/>
<path d="M59.7712 36.6555C59.3453 36.3046 58.8688 36.1052 58.3485 36.0698C57.822 36.005 57.2734 36.1837 56.7185 36.5403L56.6877 36.5599L56.1109 37.1484L56.066 37.194L55.7028 38.0761L55.7004 38.0821C55.4383 38.7574 55.7038 39.4849 56.2792 40.2072L56.2984 40.2316L56.3218 40.2519C56.7091 40.5846 57.1492 40.7766 57.6354 40.8126C58.1912 40.8904 58.7742 40.7282 59.3689 40.3788L59.4176 40.3505L59.4535 40.3073L60.2308 39.3826L60.2803 39.3236L60.299 39.2481L60.4746 38.5256L60.4896 38.4637L60.481 38.4012L60.38 37.6806L60.3707 37.6132L59.8145 36.6914L59.7712 36.6555Z" fill="#155724"/>
<path d="M54.8016 17.8774L54.2146 17.7339L54.0835 17.7021L53.2841 18.1929L53.2559 18.2216L52.3809 19.1143L52.1198 19.8041L52.1611 19.9196L52.326 20.3773L52.3776 20.5197L52.5179 20.5729L53.0237 20.7663L53.1428 20.8114L53.2611 20.7637L53.7973 20.546L53.8529 20.5231L53.8965 20.4827L54.9673 19.4901L54.9942 19.4653L55.2815 19.0479L55.3574 18.9373L55.3353 18.8054L55.2831 18.4887L54.9336 17.9094L54.8016 17.8774Z" fill="#155724"/>
<path d="M68.0461 30.98C67.8827 30.5831 67.6156 30.2398 67.199 30.2097L67.1136 30.208L67.0462 30.2101L66.985 30.2387L66.0947 30.658L66.045 30.7699C65.8646 31.1767 65.5638 31.5677 65.1282 31.9398L65.0766 31.9843L65.047 32.0454L64.7057 32.7408L64.7648 32.8808L65.0562 33.5682L65.1092 33.6163C65.3046 33.7944 65.5445 33.8815 65.8092 33.8532C66.0582 33.8264 66.2973 33.7011 66.5213 33.5259L66.5481 33.5049L66.5703 33.4785L67.7366 32.0921L67.755 32.0694L67.7695 32.044L68.1273 31.4228L68.1082 31.3057L68.0663 31.052L68.0604 31.0149L68.0461 30.98Z" fill="#155724"/>
<path d="M63.6981 11.4203C63.5981 11.1528 63.463 10.9181 63.2713 10.7649C63.0884 10.6188 62.8744 10.5638 62.6529 10.5977L62.5581 10.6175L62.5393 10.6222L62.5218 10.6292L60.994 11.232L60.9674 11.2423L59.8465 11.9304L59.8152 11.9663C59.6385 12.1639 59.5655 12.409 59.6164 12.6728C59.6632 12.9151 59.8087 13.144 59.9983 13.3566L60.0659 13.4326L60.1641 13.4567L60.6206 13.5674L60.7083 13.5889L60.7942 13.5618L61.1684 13.4443L61.187 13.4381L61.2052 13.4299L63.4286 12.4204L63.4749 12.2881L63.7401 11.5332L63.6981 11.4203Z" fill="#155724"/>
<path d="M74.7431 22.1657C74.642 21.9354 74.5092 21.7331 74.3282 21.5994C74.1593 21.4747 73.9659 21.4232 73.764 21.444L73.6772 21.4574L73.648 21.4633L73.6202 21.4743L73.0837 21.6915L72.9868 21.7314L72.93 21.8205L70.9322 24.9785L70.9946 25.1352L71.2089 25.6748L71.2619 25.8096L71.3963 25.8603L71.9023 26.0529L72.051 26.11L72.8868 25.5968L72.9236 25.5501L73.4252 24.9062L73.4359 24.8929L73.445 24.8783L74.5766 23.0656L74.6047 23.0205L74.6176 22.9689L74.7617 22.3773L74.7879 22.2685L74.7431 22.1657Z" fill="#155724"/>
<path fill-rule="evenodd" clip-rule="evenodd" d="M81.2576 1.2973L80.1307 0.536076L80.0871 0.50711L80.0376 0.493079L78.3587 0.0150106L78.3071 0L78.2535 0.00276927L76.9826 0.0659347L76.4148 0.414525L76.3737 0.513555L76.0355 1.33665L76.0225 1.36719L76.0164 1.40033L75.5271 3.97938C75.1169 5.41494 74.362 6.74645 73.2561 7.97549C71.5483 6.74663 69.7137 5.9222 67.7534 5.50768C65.3305 4.93616 62.7647 4.98105 60.0621 5.63404L59.5199 5.77257L59.5054 5.77697L59.4907 5.78225L56.2233 7.00562L56.1978 7.01527L52.7967 8.99112L52.6754 9.06109L52.6425 9.19725L51.5871 9.84526L51.5555 9.97612L50.8242 10.4251L50.7922 10.5577L50.7896 10.5706L49.881 11.2294L49.8637 11.2415L49.8486 11.2561L46.0873 14.7947L46.0772 14.8039L46.0683 14.8139L38.1437 23.5849C37.3067 24.287 36.5942 25.0238 36.0081 25.7955L32.1964 29.3545L31.2882 30.0213L31.2717 30.0336L31.2568 30.0473L29.9267 31.3069L28.0931 32.6541L27.9961 32.7249L27.9682 32.8407L27.237 33.2897L27.2052 33.4214L26.2315 34.0192L26.1999 34.1501L24.8191 34.9978L24.7876 35.1287L21.1204 37.3801L20.9901 37.3486L19.6911 38.1462L19.5701 38.1165L19.4595 38.1769L17.8973 39.0321L17.7728 39.0015L17.6659 39.0558L15.7266 40.0348L15.5987 40.0034L13.0163 41.2544L12.9979 41.2499L12.8667 41.2182L12.136 41.6668L12.0092 41.6361L7.78732 44.1129L7.66775 44.1833L7.63512 44.3186L6.74204 44.8669L6.71047 44.9978L6.15032 45.3417L6.12845 45.3611L5.33386 46.0727L5.32614 46.0797L4.20377 47.2245L4.19238 47.239L2.68656 49.1692L2.67701 49.1818L2.66867 49.1952C1.39363 51.1994 0.5714 53.3188 0.206647 55.5518C-0.0821348 57.2622 -0.0677348 59.0427 0.24664 60.8906L0.248227 60.8994L0.250359 60.9079L0.582302 62.3801L0.58602 62.3974L0.591587 62.4129L1.15263 64.0804L1.16144 64.1074L1.17461 64.1317L2.01784 65.7013L2.01558 65.7087L1.98305 65.8417L2.86222 67.2989L2.99249 67.3304L3.53405 68.228L3.66432 68.2595L3.95417 68.7399L3.97467 68.7627L5.00554 69.9181L5.01722 69.9312L5.0302 69.9428L7.23735 71.9413L7.251 71.9541L7.26616 71.9643L8.44244 72.8075L8.4476 72.8111L8.45364 72.8149C11.224 74.6337 14.1485 75.8401 17.2253 76.4297L17.6085 76.5078C21.5751 77.2905 25.7624 77.1386 30.1657 76.0598L30.1769 76.0574L30.1875 76.054L33.6346 74.944L33.6563 74.9367L33.6767 74.9272L35.2932 74.1434L35.3111 74.1482L35.4422 74.18L36.0917 73.7812L36.2223 73.8132L37.4407 73.0652L37.5704 73.0971L41.6975 70.5633L41.7296 70.4321L42.9474 69.6844L42.9792 69.5526L43.7099 69.104L43.7422 68.9719L43.7459 68.9569L45.5179 67.655L45.5349 67.6385L46.4275 66.7614L47.3319 66.0969L47.3561 66.079L47.3767 66.0573L48.0919 65.2958L48.4962 65.0476L48.5252 65.0177L50.343 63.1319L50.6704 62.9308L50.7004 62.8988L55.9181 57.3482L55.9244 57.3414L60.9583 51.6829L63.3144 49.3452L63.3417 49.3187L63.3622 49.2858L63.5642 48.9621L65.0389 47.6191L65.0722 47.5889L65.0968 47.5504L65.3014 47.2237L67.9613 44.7063L67.9687 44.6987L67.9755 44.6915L70.3754 42.1145L70.7035 41.9131L70.7354 41.877L73.3927 38.9047L73.4083 38.8861L76.3379 35.0755L76.3508 35.0585L76.3613 35.04L78.4937 31.3836L78.5006 31.3726L78.5056 31.3612C79.4436 29.4251 80.0956 27.418 80.461 25.3405L80.4618 25.337C80.6906 23.9541 80.7781 22.5378 80.7242 21.0886L80.7237 21.0716L80.7208 21.0545L80.3175 18.1731L80.3133 18.1425L80.3038 18.1144L79.3466 15.237L79.3363 15.2064L79.3212 15.1788L77.7783 12.4373L77.7083 12.3138L77.59 12.2847C77.4583 12.0213 77.3156 11.7935 77.16 11.6117C79.8379 9.29339 81.4606 6.664 81.9926 3.72354L82 3.68134L81.997 3.63799L81.8935 2.35995L81.8871 2.28252L81.3173 1.3382L81.2576 1.2973ZM76.8888 15.5498L77.3375 16.2935L77.8625 17.697L78.3365 19.9332C78.6316 21.8684 78.569 23.6863 78.1544 25.3902L78.1532 25.3969L78.1515 25.404C77.7341 27.491 76.9915 29.524 75.921 31.5033L73.821 34.7865L70.9758 38.3087L67.348 42.2046L65.8471 43.5712L65.8335 43.5833L64.9858 44.5459L64.3263 45.0593L64.3091 45.0729L64.2938 45.0883L59.6098 49.8638L59.5998 49.8744L52.2124 58.0988L48.2577 62.1968L43.5181 66.4407L42.1786 67.3828L42.1498 67.5022L41.2567 68.0505L41.2252 68.1814L40.1692 68.8297L40.1374 68.9614L36.7955 71.0132L36.6732 70.9836L36.5623 71.0449L34.7573 72.0484L34.7494 72.0465L34.6182 72.0147L33.9605 72.4185L31.9334 73.2247L29.7881 73.8759C26.149 74.7961 22.6453 75.0205 19.2749 74.5543L18.6018 74.4524L18.5992 74.4517C15.9361 74.0323 13.3694 73.1113 10.8993 71.6863C9.671 70.9776 8.48197 70.095 7.33229 69.0379L5.87581 67.5262L4.97292 66.2116L4.90226 66.1081L4.78919 66.0804L3.42916 63.6529L2.5526 61.111C2.13387 59.3337 2.05469 57.6469 2.31009 56.0479L2.31052 56.0462C2.61867 54.0429 3.34964 52.1397 4.50637 50.3351L6.33854 48.1104L7.96593 46.6751L8.87046 46.1198L8.90226 45.9918L12.7771 43.7183L12.7798 43.7189L12.8934 43.7464L12.9985 43.6954L15.5582 42.4463L15.7054 42.4824L16.2743 42.1332L16.404 42.165L16.9729 41.8157L17.0921 41.845L17.2018 41.7867L18.5217 41.0795L18.5314 41.0819L18.6546 41.1116L18.7655 41.0504L20.5714 40.0471L20.5784 40.0488L20.7096 40.0805L22.0898 39.2331L22.223 39.2658L22.3394 39.1914L27.5633 35.8727L27.8406 35.7024L27.8727 35.5712L28.7658 35.0229L28.7976 34.8912L29.5283 34.4425L29.5606 34.3105L29.565 34.2942L31.8399 32.5744L31.8512 32.5659L31.8619 32.5564L36.5483 28.3383L36.5561 28.3313L36.5629 28.3241L39.8805 24.9412L44.9184 19.2772L48.4383 15.5576L51.1906 12.9805L52.7951 11.7596L52.8224 11.6464L53.7155 11.0981L53.7468 10.9719L57.1425 8.99334L59.8365 8.00151C62.0695 7.36327 64.177 7.19965 66.1625 7.50212L66.166 7.50298C68.3793 7.81519 70.4439 8.65492 72.3618 10.0281L73.655 11.0909L74.8389 12.3316L75.7135 13.5844L75.8318 13.6135L76.9209 15.4186L76.8888 15.5498ZM79.7093 3.68434C79.4629 5.04171 78.887 6.32437 77.972 7.53282L77.9708 7.53205L77.1731 8.57393L75.6919 10.0558L74.9294 9.25621C76.3083 7.78597 77.2159 6.18707 77.6364 4.45912L77.6385 4.45028L78.1069 2.2735L78.1339 2.27499L79.3761 2.64074L79.7188 2.95991L79.7093 3.68434Z" fill="#155724"/>
</g>
</svg>
