<svg width="71" height="128" viewBox="0 0 71 128" fill="none" xmlns="http://www.w3.org/2000/svg">
<g opacity="0.980392">
<path d="M-28.4197 93.1287C-28.5638 92.8029 -28.7532 92.517 -29.0112 92.3278C-29.2865 92.1261 -29.608 92.0589 -29.9405 92.1261L-30.0204 92.1417L-31.1781 92.8469L-31.2163 92.884L-32.5117 94.1475L-32.5249 94.1609L-32.5376 94.175L-34.5945 96.5358L-34.6351 96.583L-34.6619 96.6387L-35.2608 97.8737L-35.3517 98.0623L-35.2715 98.2555C-35.0228 98.8551 -34.6059 99.368 -33.941 99.3485L-33.8481 99.3452L-33.7634 99.3075L-32.7667 98.8582L-32.667 98.8135L-32.5981 98.7289L-30.7961 96.5393L-29.1788 95.085L-29.1263 95.0381L-29.0897 94.9775L-28.4215 93.8581L-28.3448 93.7303L-28.3568 93.5809L-28.3815 93.2793L-28.3876 93.2009L-28.4197 93.1287Z" fill="#155724"/>
<path d="M-7.52814 115.215C-7.76418 114.67 -8.16837 114.2 -8.80547 114.246L-8.84729 114.249L-8.8889 114.26L-13.3871 115.427L-15.7048 115.743L-15.8009 115.757L-16.4742 116.167L-16.5326 116.304L-16.7629 116.84L-16.8412 117.023L-16.7634 117.207L-16.3876 118.086L-16.2954 118.301L-16.0683 118.355L-15.4172 118.513L-15.3338 118.533L-15.2498 118.522L-12.3007 118.15L-12.2705 118.146L-12.2409 118.139L-9.50285 117.42L-9.45609 117.407L-9.41252 117.386L-7.95237 116.655L-7.79941 116.578L-7.73281 116.422L-7.50252 115.886L-7.45746 115.779L-7.46661 115.664L-7.49131 115.363L-7.49772 115.286L-7.52814 115.215Z" fill="#155724"/>
<path d="M-15.3327 86.1852C-15.6772 85.6384 -16.1579 85.2836 -16.7691 85.2986L-16.893 85.3068L-16.9546 85.3124L-17.0123 85.3348L-21.2563 86.9708L-21.2951 86.9859L-22.3517 87.6295L-22.4098 87.7214C-22.7318 88.2332 -22.6993 88.8056 -22.4283 89.3588L-22.3755 89.4685L-22.275 89.5374L-21.7272 89.916L-21.5799 90.0182L-21.4025 89.9944L-20.7403 89.9077L-20.687 89.9008L-18.5714 89.0995L-18.5508 89.0912L-18.5297 89.0805L-15.7255 87.6891L-15.6262 87.6404L-15.5597 87.5519L-15.2431 87.1298L-15.2645 86.294L-15.3327 86.1852Z" fill="#155724"/>
<path d="M7.05956 108.4C6.92049 108.055 6.73289 107.747 6.46527 107.551C6.18953 107.349 5.87054 107.297 5.55072 107.378L5.28348 107.401L5.17474 107.41L2.23356 109.201L1.90933 109.124L1.74767 109.38L1.70015 109.369L0.366003 110.181L0.307554 110.318L-0.00180821 111.038L0.45257 112.1L0.526555 112.273L0.698872 112.346L1.23368 112.573L1.3916 112.64L1.55564 112.589L2.62246 112.255L2.67745 112.239L4.41589 111.18L4.60098 111.225L5.08302 110.931L5.139 110.848C5.37336 110.505 5.83433 110.158 6.59961 109.842L6.77538 109.77L7.12565 108.954L7.11602 108.838L7.0918 108.537L7.08589 108.466L7.05956 108.4Z" fill="#155724"/>
<path d="M-0.382205 77.6246C-0.507015 77.3537 -0.641583 77.1177 -0.789789 76.9282C-0.918071 76.7642 -1.07116 76.6162 -1.25394 76.5188L-1.33394 76.4801L-1.48811 76.4141L-1.64999 76.4615L-2.76771 76.7926L-2.84901 76.8709L-3.725 77.7115L-7.26178 80.1793L-7.37989 80.2619L-7.76684 81.2761L-7.71135 81.4374C-7.59395 81.775 -7.4344 82.0782 -7.20399 82.2874C-6.96406 82.5053 -6.66599 82.6009 -6.34536 82.5535L-6.04365 82.5276L-5.93413 82.5184L-2.89576 80.6677L-2.84964 80.4808L-2.84629 80.467L-0.870621 79.1079L-0.816432 78.9885L-0.379926 78.0103L-0.293113 77.8167L-0.382205 77.6246Z" fill="#155724"/>
<path d="M20.1154 98.5494C19.8673 97.9334 19.4713 97.3992 18.8484 97.342L18.7213 97.3362L18.6243 97.3378L18.5357 97.3779L17.5389 97.8272L17.4424 97.87L17.3744 97.9509L16.847 98.5728L14.3315 100.591L14.2862 100.71L13.9488 101.593L14.0086 101.756L14.2438 102.404L14.3166 102.606L14.5168 102.681L15.2388 102.954L15.4189 103.022L16.5912 102.494L16.7979 102.401L16.8523 102.18L16.8599 102.149L19.3047 100.209L19.3402 100.18L19.37 100.144L19.9964 99.4066L20.0218 99.2995L20.1363 98.8342L20.1715 98.689L20.1154 98.5494Z" fill="#155724"/>
<path d="M11.9988 66.9184C11.8616 66.6222 11.6782 66.3576 11.4238 66.1884C11.1852 66.03 10.9168 65.9774 10.6455 66.0195L10.5291 66.0435L10.4987 66.0513L10.4694 66.0628L9.70512 66.3705L9.60313 66.4113L9.53029 66.493L8.33159 67.8437L6.67701 69.1789L6.63083 69.2817L6.19385 70.2591L6.1189 70.4285L6.17916 70.6029C6.29658 70.9406 6.4565 71.2444 6.68699 71.4537C6.92249 71.6674 7.21355 71.7627 7.52737 71.7213C8.12875 71.7406 8.72183 71.3889 9.28347 70.8649L11.3174 68.9937L11.3675 68.9482L11.4015 68.8902L12.0705 67.7704L12.1658 67.61L12.1253 67.4278L12.0306 67.011L12.0192 66.9625L11.9988 66.9184Z" fill="#155724"/>
<path d="M33.2298 85.6572C33.0908 85.3121 32.9029 85.004 32.6355 84.8078C32.3787 84.6197 32.0841 84.5609 31.7866 84.619L31.6582 84.6514L31.6462 84.6545L31.6351 84.659L30.9854 84.8959L30.8697 84.9387L30.7905 85.0328L29.1402 86.9795L26.6793 89.4222C26.153 89.862 25.8377 90.406 25.8263 91.0507L25.8252 91.1399L25.8571 91.2239C25.9998 91.6025 26.1926 91.935 26.4661 92.1518C26.7642 92.3878 27.1198 92.4559 27.4837 92.3604L27.5496 92.3427L28.5852 91.7119L28.6266 91.6696L31.262 88.9565L31.2763 88.9414L32.5012 87.5619L32.5303 87.5292L32.5533 87.4917L33.2986 86.2434L33.2863 86.0952L33.2616 85.7935L33.2557 85.7225L33.2298 85.6572Z" fill="#155724"/>
<path d="M31.0084 71.8163C30.7752 71.2542 30.3943 70.7683 29.7997 70.7259L29.6778 70.7233L29.5776 70.7268L29.4881 70.7706C28.6959 71.1544 28.0409 71.2007 27.4831 70.9917L27.3728 70.9469L27.3507 70.9369L27.328 70.9294C26.8585 70.7754 26.4004 70.4114 25.9655 69.7717C25.6161 68.8707 25.6334 68.1056 25.9578 67.4358L25.9661 67.418L25.9735 67.3985L26.2496 66.6769L26.3156 66.5034L26.2441 66.3316C25.9955 65.7322 25.5788 65.2201 24.914 65.2394L24.8814 65.2401L24.8496 65.2456L24.1299 65.3673L23.9792 65.393L23.8729 65.5036C23.1367 66.2655 22.7263 67.1386 22.6841 68.1129L22.6827 68.1351L22.6846 68.1575L22.7864 70.1523L22.7913 70.2496L23.5613 71.7927L23.5882 71.8457L23.627 71.8903C24.6238 73.0353 25.7626 73.7515 27.0445 73.9865C28.1596 74.3253 29.3673 74.0227 30.622 73.2256L30.6939 73.1808L30.7449 73.1124L31.0619 72.6911L31.0439 71.9834L31.0412 71.8965L31.0084 71.8163Z" fill="#155724"/>
<path d="M26.4496 58.5716C25.8359 57.3556 25.0107 56.5777 23.9414 56.4866L23.7243 56.4781L23.7218 56.4775L22.932 56.4841L22.8511 56.4843L22.7754 56.5122L21.4765 56.9868L21.3738 57.0247L21.2983 57.1038L20.2346 58.2262L20.1603 58.3056L20.1281 58.4084L19.6614 59.903L19.6557 59.932C19.5224 60.6904 19.8503 61.4733 20.4534 62.2442L20.4767 62.2737L20.5041 62.2996C21.0697 62.8231 21.712 63.1379 22.4241 63.2159C23.3058 63.3567 24.2345 63.0669 25.1851 62.4544L25.2142 62.4356L25.2409 62.4129C26.0104 61.7364 26.4811 60.9469 26.5939 60.0458L26.5997 59.9975L26.5961 59.9496L26.4978 58.7437L26.4902 58.6524L26.4496 58.5716Z" fill="#155724"/>
<path d="M39.2833 71.8889C38.6756 71.3922 37.9958 71.11 37.2534 71.0599C36.5021 70.9682 35.7194 71.2211 34.9276 71.7259L34.8837 71.7537L34.0606 72.5867L33.9965 72.6513L33.4784 73.8999L33.475 73.9084C33.101 74.8643 33.4799 75.8943 34.3009 76.9168L34.3282 76.9513L34.3617 76.9799C34.9142 77.4509 35.5421 77.7227 36.2359 77.7737C37.0289 77.8838 37.8608 77.6542 38.7093 77.1596L38.7787 77.1195L38.83 77.0584L39.939 75.7495L40.0097 75.6659L40.0363 75.559L40.287 74.5363L40.3083 74.4486L40.296 74.3602L40.1519 73.34L40.1386 73.2447L39.3451 71.9398L39.2833 71.8889Z" fill="#155724"/>
<path d="M32.1925 45.307L31.355 45.1038L31.1679 45.0589L30.0273 45.7536L29.987 45.7942L28.7386 47.0579L28.3661 48.0344L28.425 48.1979L28.6603 48.8458L28.7338 49.0473L28.9341 49.1226L29.6557 49.3964L29.8256 49.4604L29.9944 49.3927L30.7595 49.0845L30.8389 49.0522L30.9012 48.9951L32.429 47.5899L32.4674 47.5548L32.8773 46.9639L32.9855 46.8073L32.9541 46.6207L32.8796 46.1723L32.3809 45.3522L32.1925 45.307Z" fill="#155724"/>
<path d="M51.0901 63.8548C50.857 63.2929 50.4759 62.8069 49.8815 62.7644L49.7596 62.7619L49.6635 62.765L49.5761 62.8054L48.3059 63.3989L48.2349 63.5573C47.9776 64.1332 47.5483 64.6868 46.9268 65.2135L46.8532 65.2765L46.811 65.363L46.324 66.3474L46.4083 66.5456L46.8242 67.5186L46.8997 67.5867C47.1785 67.8389 47.5209 67.9621 47.8984 67.922C48.2537 67.8841 48.595 67.7067 48.9145 67.4588L48.9529 67.429L48.9845 67.3916L50.6485 65.429L50.6748 65.397L50.6955 65.3609L51.206 64.4816L51.1788 64.3159L51.119 63.9567L51.1106 63.9042L51.0901 63.8548Z" fill="#155724"/>
<path d="M44.8863 36.1665C44.7436 35.7878 44.5508 35.4555 44.2773 35.2386C44.0164 35.0318 43.7111 34.954 43.395 35.0019L43.2597 35.0299L43.2329 35.0367L43.208 35.0465L41.0281 35.8998L40.9901 35.9144L39.3908 36.8885L39.346 36.9393C39.094 37.219 38.9899 37.566 39.0625 37.9395C39.1292 38.2824 39.3368 38.6064 39.6074 38.9074L39.7038 39.015L39.8438 39.0491L40.4953 39.2058L40.6203 39.2362L40.7429 39.1978L41.2768 39.0315L41.3034 39.0227L41.3294 39.0112L44.5017 37.5822L44.5678 37.3948L44.9462 36.3262L44.8863 36.1665Z" fill="#155724"/>
<path d="M60.6456 51.3774C60.5015 51.0514 60.3119 50.765 60.0536 50.5757C59.8127 50.3993 59.5367 50.3264 59.2487 50.3559L59.1249 50.3748L59.0831 50.3832L59.0435 50.3987L58.278 50.7061L58.1397 50.7626L58.0587 50.8887L55.2081 55.3591L55.2972 55.581L55.603 56.3449L55.6785 56.5356L55.8703 56.6075L56.5923 56.8801L56.8044 56.9609L57.9971 56.2344L58.0496 56.1683L58.7653 55.2568L58.7805 55.238L58.7934 55.2173L60.4081 52.6513L60.4481 52.5875L60.4665 52.5144L60.6721 51.6769L60.7096 51.5229L60.6456 51.3774Z" fill="#155724"/>
<path fill-rule="evenodd" clip-rule="evenodd" d="M69.9407 21.8364L68.3328 20.7589L68.2706 20.7179L68.1999 20.698L65.8045 20.0212L65.7308 20L65.6544 20.0039L63.841 20.0933L63.0309 20.5868L62.9723 20.727L62.4896 21.8921L62.4712 21.9354L62.4624 21.9823L61.7643 25.6331C61.179 27.6653 60.1018 29.5502 58.5239 31.29C56.0872 29.5504 53.4696 28.3834 50.6726 27.7966C47.2155 26.9876 43.5544 27.0511 39.6984 27.9755L38.9248 28.1716L38.9041 28.1778L38.883 28.1853L34.221 29.917L34.1846 29.9307L29.3318 32.7277L29.1587 32.8267L29.1119 33.0195L27.6059 33.9368L27.5609 34.122L26.5175 34.7576L26.4719 34.9453L26.4681 34.9636L25.1717 35.8962L25.147 35.9133L25.1254 35.9339L19.7587 40.9431L19.7443 40.9562L19.7316 40.9703L8.42453 53.3864C7.23024 54.3803 6.21375 55.4233 5.37738 56.5157L-0.0612453 61.5537L-1.3571 62.4977L-1.38056 62.5152L-1.40182 62.5345L-3.29974 64.3175L-5.91599 66.2246L-6.05428 66.3249L-6.09414 66.4888L-7.13751 67.1244L-7.18285 67.3109L-8.5722 68.1571L-8.61723 68.3424L-10.5874 69.5424L-10.6324 69.7276L-15.8648 72.9148L-16.0507 72.8702L-17.9042 73.9991L-18.0768 73.9571L-18.2346 74.0426L-20.4637 75.2532L-20.6412 75.21L-20.7937 75.2868L-23.5608 76.6726L-23.7434 76.6282L-27.428 78.3991L-27.4543 78.3927L-27.6414 78.3478L-28.684 78.9828L-28.8649 78.9395L-34.8888 82.4456L-35.0594 82.5452L-35.106 82.7367L-36.3803 83.5129L-36.4253 83.6982L-37.2245 84.185L-37.2557 84.2125L-38.3895 85.2198L-38.4005 85.2297L-40.0019 86.8503L-40.0182 86.8709L-42.1667 89.6031L-42.1804 89.621L-42.1923 89.64C-44.0115 92.477 -45.1847 95.4773 -45.7051 98.6383C-46.1172 101.06 -46.0966 103.58 -45.6481 106.196L-45.6458 106.208L-45.6428 106.22L-45.1692 108.304L-45.1638 108.329L-45.1559 108.351L-44.3554 110.711L-44.3428 110.749L-44.324 110.784L-43.1209 113.006L-43.1241 113.016L-43.1705 113.204L-41.9161 115.267L-41.7302 115.312L-40.9575 116.582L-40.7716 116.627L-40.3581 117.307L-40.3288 117.339L-38.8579 118.975L-38.8413 118.994L-38.8228 119.01L-35.6735 121.839L-35.6541 121.857L-35.6324 121.872L-33.9541 123.065L-33.9467 123.07L-33.9381 123.076C-29.9852 125.65 -25.8125 127.358 -21.4225 128.193L-20.8757 128.303C-15.216 129.411 -9.24148 129.196 -2.95876 127.669L-2.9427 127.666L-2.92759 127.661L1.99081 126.09L2.0218 126.079L2.05091 126.066L4.35735 124.956L4.38284 124.963L4.56997 125.008L5.49672 124.444L5.68307 124.489L7.4215 123.43L7.60659 123.475L13.4952 119.888L13.541 119.703L15.2787 118.644L15.324 118.458L16.3666 117.823L16.4127 117.636L16.4179 117.614L18.9463 115.771L18.9705 115.748L20.2441 114.506L21.5345 113.566L21.5691 113.54L21.5984 113.51L22.6189 112.432L23.1958 112.08L23.2372 112.038L25.8308 109.369L26.2981 109.084L26.3409 109.039L33.7856 101.181L33.7946 101.172L40.9771 93.1615L44.3389 89.8524L44.3778 89.8148L44.407 89.7682L44.6952 89.3101L46.7994 87.4089L46.8469 87.3661L46.882 87.3116L47.1739 86.8491L50.9691 83.2855L50.9797 83.2748L50.9894 83.2646L54.4137 79.6167L54.8818 79.3316L54.9273 79.2804L58.7188 75.0729L58.7411 75.0465L62.9211 69.6523L62.9395 69.6283L62.9545 69.6021L65.9972 64.4261L66.0069 64.4106L66.0141 64.3944C67.3525 61.6537 68.2828 58.8125 68.804 55.8717L68.8053 55.8667C69.1317 53.9091 69.2565 51.9042 69.1797 49.8527L69.1789 49.8287L69.1749 49.8045L68.5994 45.7255L68.5933 45.6823L68.5798 45.6425L67.214 41.5693L67.1994 41.526L67.1778 41.4869L64.9764 37.606L64.8765 37.4312L64.7077 37.3901C64.5198 37.0172 64.3162 36.6947 64.0941 36.4373C67.9151 33.1556 70.2304 29.4335 70.9894 25.271L71 25.2112L70.9957 25.1499L70.848 23.3407L70.8389 23.2311L70.026 21.8943L69.9407 21.8364ZM63.7072 42.012L64.3475 43.0648L65.0965 45.0515L65.7728 48.2171C66.1938 50.9565 66.1045 53.5299 65.513 55.942L65.5113 55.9515L65.5089 55.9615C64.9133 58.9158 63.8537 61.7937 62.3263 64.5955L59.3299 69.2432L55.2704 74.2292L50.094 79.7441L47.9526 81.6787L47.9332 81.6958L46.7237 83.0585L45.7827 83.7852L45.7581 83.8045L45.7363 83.8263L39.053 90.5864L39.0388 90.6015L28.4981 102.244L22.8555 108.045L16.0929 114.052L14.1817 115.386L14.1406 115.555L12.8663 116.331L12.8213 116.516L11.3145 117.434L11.2692 117.621L6.50095 120.525L6.32633 120.483L6.16813 120.57L3.59267 121.991L3.58141 121.988L3.39429 121.943L2.45588 122.515L-0.436497 123.656L-3.49743 124.578C-8.68985 125.88 -13.689 126.198 -18.498 125.538L-19.4584 125.394L-19.4621 125.393C-23.2619 124.799 -26.9241 123.495 -30.4486 121.478C-32.2011 120.475 -33.8977 119.225 -35.5381 117.729L-37.6162 115.589L-38.9045 113.728L-39.0053 113.582L-39.1666 113.542L-41.1072 110.106L-42.3579 106.508C-42.9553 103.992 -43.0683 101.604 -42.7039 99.3406L-42.7033 99.3381C-42.2636 96.5022 -41.2206 93.8082 -39.5702 91.2535L-36.956 88.1044L-34.634 86.0726L-33.3434 85.2865L-33.298 85.1053L-27.7692 81.8869L-27.7655 81.8878L-27.6034 81.9267L-27.4533 81.8545L-23.8012 80.0863L-23.5911 80.1374L-22.7794 79.643L-22.5943 79.6881L-21.7826 79.1937L-21.6125 79.2351L-21.456 79.1526L-19.5726 78.1515L-19.5589 78.1549L-19.383 78.197L-19.2248 78.1102L-16.6481 76.69L-16.6381 76.6925L-16.451 76.7374L-14.4816 75.5378L-14.2915 75.5841L-14.1255 75.4787L-6.67191 70.7808L-6.27618 70.5398L-6.23037 70.3541L-4.95608 69.5779L-4.91075 69.3914L-3.86816 68.7563L-3.82204 68.5693L-3.81578 68.5463L-0.569906 66.1118L-0.553747 66.0998L-0.538537 66.0863L6.14825 60.1152L6.15927 60.1053L6.16904 60.0951L10.9026 55.3063L18.091 47.2884L23.1132 42.0231L27.0403 38.3749L29.3296 36.6467L29.3685 36.4865L30.6428 35.7104L30.6876 35.5317L35.5326 32.7308L39.3765 31.3268C42.5625 30.4233 45.5696 30.1917 48.4026 30.6199L48.4076 30.6211C51.5656 31.0631 54.5115 32.2518 57.248 34.1956L59.0931 35.7002L60.7823 37.4565L62.0303 39.2299L62.1991 39.271L63.7531 41.8263L63.7072 42.012ZM67.7316 25.2155C67.38 27.137 66.5583 28.9527 65.2527 30.6633L65.251 30.6623L64.1129 32.1371L61.9994 34.2349L60.9114 33.1029C62.8789 31.0217 64.1739 28.7583 64.7739 26.3123L64.7769 26.2997L65.4452 23.2183L65.4838 23.2204L67.2562 23.7382L67.7451 24.19L67.7316 25.2155Z" fill="#155724"/>
</g>
</svg>
