<svg width="30" height="29" viewBox="0 0 30 29" fill="none" xmlns="http://www.w3.org/2000/svg">
<path d="M23 11.5C23 17.8513 17.8513 23 11.5 23C5.14873 23 0 17.8513 0 11.5C0 5.14873 5.14873 0 11.5 0C17.8513 0 23 5.14873 23 11.5Z" fill="white"/>
<path d="M19 11.5C19 7.35786 15.6421 4 11.5 4C7.35786 4 4 7.35786 4 11.5C4 15.6421 7.35786 19 11.5 19V23C5.14873 23 0 17.8513 0 11.5C0 5.14873 5.14873 0 11.5 0C17.8513 0 23 5.14873 23 11.5C23 17.8513 17.8513 23 11.5 23V19C15.6421 19 19 15.6421 19 11.5Z" fill="#B9B9B9"/>
<path d="M28.5113 24.8074C29.2967 25.584 29.3039 26.8504 28.5272 27.6358C27.7506 28.4211 26.4843 28.4282 25.6989 27.6516L17.3001 19.3467C16.5146 18.57 16.5075 17.3037 17.2842 16.5183C18.0608 15.7329 19.3271 15.7258 20.1126 16.5024L28.5113 24.8074Z" fill="#B9B9B9"/>
</svg>
